<?xml version="1.0" standalone="no"?>
<!DOCTYPE svg PUBLIC "-//W3C//DTD SVG 20010904//EN"
 "http://www.w3.org/TR/2001/REC-SVG-20010904/DTD/svg10.dtd">
<svg version="1.0" xmlns="http://www.w3.org/2000/svg"
 width="1026.000000pt" height="893.000000pt" viewBox="0 0 1026.000000 893.000000"
 preserveAspectRatio="xMidYMid meet">

<g transform="translate(0.000000,893.000000) scale(0.100000,-0.100000)"
fill="#ffffff" stroke="none">
<path d="M4970 8714 c-285 -19 -432 -38 -644 -80 -729 -145 -1396 -474 -1966
-970 l-125 -109 753 -3 753 -2 72 31 c274 120 611 212 942 256 163 21 628 24
785 5 344 -42 670 -128 969 -257 l83 -35 750 0 751 0 -19 21 c-36 41 -236 209
-350 294 -618 464 -1345 748 -2129 830 -139 15 -520 26 -625 19z"/>
<path d="M2135 6563 c-213 -357 -389 -651 -391 -654 -2 -3 64 -52 147 -110
l150 -104 -7 -1887 -7 -1888 37 0 c75 0 366 130 825 369 169 87 437 226 596
309 l290 149 5 773 5 772 2484 -1796 2483 -1796 50 0 c39 0 48 3 41 13 -104
133 -1466 1843 -1702 2137 -179 223 -536 672 -793 999 -406 516 -466 597 -454
610 7 9 541 624 1186 1366 645 743 1180 1358 1188 1368 14 16 -39 17 -1099 17
l-1114 0 -1025 -1101 c-564 -606 -1045 -1124 -1070 -1151 -45 -50 -45 -50 -85
-40 -22 5 -52 13 -67 16 l-28 6 0 1135 0 1135 -629 0 -628 0 -388 -647z"/>
<path d="M8239 6742 l-285 -328 33 -50 c291 -424 484 -930 558 -1464 22 -156
31 -592 16 -757 -24 -257 -83 -537 -161 -773 -99 -295 -273 -641 -442 -873
-27 -38 -47 -75 -44 -82 6 -18 521 -661 535 -669 19 -12 240 288 374 511 525
866 719 1923 542 2941 -97 554 -315 1104 -630 1588 -76 117 -197 283 -205 284
-3 0 -134 -148 -291 -328z"/>
<path d="M1121 5808 c-98 -296 -157 -562 -198 -888 -25 -201 -25 -743 0 -940
91 -720 316 -1332 703 -1910 35 -52 75 -108 89 -125 l24 -30 1 675 c0 371 3
1197 6 1835 l7 1160 -281 203 c-154 111 -283 202 -285 202 -3 0 -32 -82 -66
-182z"/>
<path d="M2609 1866 c-113 -56 -255 -122 -315 -146 -104 -41 -115 -44 -238
-49 l-129 -6 158 -163 c367 -379 718 -638 1170 -865 431 -215 874 -351 1370
-418 194 -26 679 -37 888 -20 795 67 1549 349 2175 813 79 58 92 72 81 83 -15
13 -708 515 -713 515 -1 0 -63 -36 -137 -81 -416 -250 -861 -402 -1364 -465
-190 -25 -605 -25 -790 0 -722 94 -1339 373 -1874 849 -36 31 -68 57 -71 56
-3 0 -98 -47 -211 -103z"/>
</g>
</svg>
